<?xml version="1.0" encoding="iso-8859-1"?>
<!-- Generator: Adobe Illustrator 21.0.0, SVG Export Plug-In . SVG Version: 6.00 Build 0)  -->
<svg version="1.1" xmlns="http://www.w3.org/2000/svg" xmlns:xlink="http://www.w3.org/1999/xlink" x="0px" y="0px"
	 viewBox="0 0 32.022 32.02" style="enable-background:new 0 0 32.022 32.02;" xml:space="preserve">
<g id="Cotton_Candy">
	<g>
		<rect x="0.022" y="0" style="fill:none;" width="32" height="32"/>
		<g>
			<path style="fill:#FFDFB3;" d="M8.135,19.644c0.457-0.453,1.237-0.371,1.572,0.205c0.295,0.51,0.656,0.979,1.072,1.395
				c0.412,0.411,0.881,0.772,1.395,1.073c0.572,0.334,0.663,1.11,0.203,1.57c0,0-4.85,4.85-7.256,7.255
				c-1.119,1.119-2.917,1.177-4.104,0.13c-1.307-1.153-1.358-3.153-0.138-4.372L8.135,19.644z"/>
			<path style="fill:#FFCC99;" d="M12.174,22.316c-0.514-0.301-0.982-0.662-1.395-1.073l0-0.001l-9.89,9.89
				c0.045,0.045,0.08,0.096,0.128,0.139c1.187,1.047,2.984,0.989,4.104-0.13c2.405-2.405,7.256-7.255,7.256-7.255
				C12.838,23.427,12.746,22.65,12.174,22.316z"/>
			<g>
				<path style="fill:#F26C9A;" d="M9.366,22.657C4.958,18.25,6.141,10.324,11.487,4.979c5.459-5.458,13.389-6.408,17.678-2.121
					c4.289,4.289,3.338,12.219-2.121,17.677l0,0C21.686,25.89,13.763,27.059,9.366,22.657z"/>
			</g>
			<path style="fill:#D95782;" d="M29.165,2.858L29.165,2.858L9.365,22.657l0,0c4.397,4.402,12.32,3.233,17.678-2.122
				C32.503,15.077,33.454,7.147,29.165,2.858z"/>
			<g>
				<g>
					<path style="fill:#D95782;" d="M16.356,21.26c-1.744-0.811-3.428-1.789-5.004-2.908c-0.451-0.319-0.557-0.944-0.238-1.395
						c0.322-0.449,0.947-0.555,1.395-0.236c1.479,1.049,3.057,1.966,4.691,2.725c0.5,0.233,0.717,0.828,0.484,1.328
						C17.452,21.278,16.853,21.491,16.356,21.26z"/>
				</g>
				<g>
					<path style="fill:#D95782;" d="M21.924,19.096c-3.828-1.127-7.303-3.02-10.322-5.626c-0.42-0.36-0.465-0.992-0.105-1.41
						c0.365-0.418,0.996-0.462,1.41-0.104c2.805,2.418,6.029,4.175,9.584,5.222c0.529,0.155,0.832,0.712,0.676,1.241
						C23.012,18.95,22.452,19.252,21.924,19.096z"/>
				</g>
				<g>
					<path style="fill:#D95782;" d="M25.083,15.762c-4.258-0.86-8.199-2.863-11.4-5.793c-0.406-0.372-0.436-1.005-0.063-1.412
						c0.377-0.41,1.006-0.434,1.414-0.063c2.932,2.684,6.543,4.519,10.443,5.307c0.543,0.109,0.893,0.637,0.783,1.179
						C26.151,15.523,25.619,15.872,25.083,15.762z"/>
				</g>
				<g>
					<path style="fill:#D95782;" d="M26.612,11.978c-3.645-0.597-7.043-2.188-9.828-4.603c-0.418-0.362-0.463-0.993-0.102-1.411
						c0.361-0.417,0.992-0.462,1.41-0.101c2.506,2.172,5.564,3.604,8.844,4.14c0.545,0.09,0.914,0.604,0.824,1.148
						C27.671,11.697,27.158,12.065,26.612,11.978z"/>
				</g>
				<g>
					<path style="fill:#D95782;" d="M25.663,7.69c-1.395-0.379-2.732-0.946-3.977-1.687c-0.475-0.282-0.631-0.896-0.348-1.371
						c0.283-0.479,0.898-0.629,1.371-0.348c1.088,0.647,2.258,1.144,3.477,1.476c0.533,0.145,0.848,0.694,0.703,1.228
						C26.743,7.526,26.186,7.836,25.663,7.69z"/>
				</g>
			</g>
			<path style="fill:#CC527A;" d="M17.682,20.78c-0.16,0.36-0.52,0.58-0.9,0.58c-0.14,0-0.28-0.04-0.42-0.1
				c-1.26-0.58-2.46-1.24-3.62-1.98l1.46-1.46c0.98,0.6,1.98,1.14,3,1.62C17.702,19.68,17.922,20.28,17.682,20.78z"/>
			<g>
				<path style="fill:#CC527A;" d="M23.162,18.42c-0.12,0.44-0.52,0.72-0.96,0.72c-0.08,0-0.18-0.02-0.28-0.04
					c-2.22-0.66-4.32-1.58-6.28-2.72l1.48-1.48c1.68,0.98,3.48,1.72,5.36,2.28C23.022,17.34,23.322,17.88,23.162,18.42z"/>
			</g>
			<g>
				<path style="fill:#CC527A;" d="M26.262,14.98c-0.1,0.48-0.52,0.8-0.98,0.8c-0.06,0-0.14,0-0.2-0.02
					c-2.28-0.46-4.46-1.24-6.48-2.34l1.48-1.48c1.7,0.86,3.52,1.48,5.4,1.86C26.022,13.92,26.362,14.44,26.262,14.98z"/>
			</g>
			<g>
				<path style="fill:#CC527A;" d="M27.762,11.16c-0.08,0.48-0.5,0.84-0.98,0.84c-0.06,0-0.12-0.02-0.18-0.02
					c-1.74-0.28-3.42-0.8-5.02-1.52l1.52-1.54c1.22,0.5,2.52,0.86,3.84,1.08C27.482,10.1,27.842,10.6,27.762,11.16z"/>
			</g>
			<g>
				<path style="fill:#CC527A;" d="M26.882,6.98c-0.12,0.46-0.52,0.74-0.96,0.74c-0.08,0-0.18,0-0.26-0.02
					c-0.34-0.1-0.68-0.2-1.02-0.32l1.6-1.6C26.742,5.94,27.042,6.48,26.882,6.98z"/>
			</g>
		</g>
	</g>
</g>
<g id="Layer_1">
</g>
</svg>
